<mxfile host="app.diagrams.net" modified="2024-01-11T01:58:06.499Z" agent="Mozilla/5.0 (Windows NT 10.0; Win64; x64) AppleWebKit/537.36 (KHTML, like Gecko) Chrome/120.0.0.0 Safari/537.36" etag="502DI0LL11uwnJ9pnblt" version="22.1.16" type="device">
  <diagram name="페이지-1" id="TP06MDlD93ecIk8I9S-t">
    <mxGraphModel dx="1434" dy="840" grid="1" gridSize="10" guides="1" tooltips="1" connect="1" arrows="1" fold="1" page="1" pageScale="1" pageWidth="827" pageHeight="1169" math="0" shadow="0">
      <root>
        <mxCell id="0" />
        <mxCell id="1" parent="0" />
        <mxCell id="p1R59aOPYzYSfDHonn42-7" style="edgeStyle=orthogonalEdgeStyle;rounded=0;orthogonalLoop=1;jettySize=auto;html=1;" edge="1" parent="1" source="p1R59aOPYzYSfDHonn42-1">
          <mxGeometry relative="1" as="geometry">
            <mxPoint x="600" y="450" as="targetPoint" />
          </mxGeometry>
        </mxCell>
        <mxCell id="p1R59aOPYzYSfDHonn42-16" style="edgeStyle=orthogonalEdgeStyle;rounded=0;orthogonalLoop=1;jettySize=auto;html=1;" edge="1" parent="1" source="p1R59aOPYzYSfDHonn42-1">
          <mxGeometry relative="1" as="geometry">
            <mxPoint x="430" y="335" as="targetPoint" />
          </mxGeometry>
        </mxCell>
        <mxCell id="p1R59aOPYzYSfDHonn42-1" value="feel &amp;gt;= -100 &amp;amp;&amp;amp;&amp;nbsp;&lt;br style=&quot;font-size: 20px;&quot;&gt;feel &amp;lt;= 100" style="rhombus;whiteSpace=wrap;html=1;fontSize=20;" vertex="1" parent="1">
          <mxGeometry x="505" y="270" width="190" height="130" as="geometry" />
        </mxCell>
        <mxCell id="p1R59aOPYzYSfDHonn42-5" style="edgeStyle=orthogonalEdgeStyle;rounded=0;orthogonalLoop=1;jettySize=auto;html=1;entryX=0.5;entryY=0;entryDx=0;entryDy=0;" edge="1" parent="1" source="p1R59aOPYzYSfDHonn42-2" target="p1R59aOPYzYSfDHonn42-4">
          <mxGeometry relative="1" as="geometry" />
        </mxCell>
        <mxCell id="p1R59aOPYzYSfDHonn42-2" value="시작" style="rounded=1;whiteSpace=wrap;html=1;fontSize=29;" vertex="1" parent="1">
          <mxGeometry x="540" y="60" width="120" height="60" as="geometry" />
        </mxCell>
        <mxCell id="p1R59aOPYzYSfDHonn42-6" style="edgeStyle=orthogonalEdgeStyle;rounded=0;orthogonalLoop=1;jettySize=auto;html=1;entryX=0.5;entryY=0;entryDx=0;entryDy=0;" edge="1" parent="1" source="p1R59aOPYzYSfDHonn42-4" target="p1R59aOPYzYSfDHonn42-1">
          <mxGeometry relative="1" as="geometry" />
        </mxCell>
        <mxCell id="p1R59aOPYzYSfDHonn42-4" value="feel입력" style="rounded=1;whiteSpace=wrap;html=1;fontSize=29;" vertex="1" parent="1">
          <mxGeometry x="540" y="160" width="120" height="60" as="geometry" />
        </mxCell>
        <mxCell id="p1R59aOPYzYSfDHonn42-11" style="edgeStyle=orthogonalEdgeStyle;rounded=0;orthogonalLoop=1;jettySize=auto;html=1;entryX=0.5;entryY=0;entryDx=0;entryDy=0;" edge="1" parent="1" source="p1R59aOPYzYSfDHonn42-9">
          <mxGeometry relative="1" as="geometry">
            <mxPoint x="600" y="570" as="targetPoint" />
          </mxGeometry>
        </mxCell>
        <mxCell id="p1R59aOPYzYSfDHonn42-9" value="feel &amp;lt; 0?" style="rhombus;whiteSpace=wrap;html=1;fontSize=20;" vertex="1" parent="1">
          <mxGeometry x="505" y="450" width="190" height="60" as="geometry" />
        </mxCell>
        <mxCell id="p1R59aOPYzYSfDHonn42-12" value="Yes" style="text;html=1;strokeColor=none;fillColor=none;align=center;verticalAlign=middle;whiteSpace=wrap;rounded=0;" vertex="1" parent="1">
          <mxGeometry x="520" y="400" width="60" height="30" as="geometry" />
        </mxCell>
        <mxCell id="p1R59aOPYzYSfDHonn42-13" value="Yes" style="text;html=1;strokeColor=none;fillColor=none;align=center;verticalAlign=middle;whiteSpace=wrap;rounded=0;" vertex="1" parent="1">
          <mxGeometry x="520" y="530" width="60" height="30" as="geometry" />
        </mxCell>
        <mxCell id="p1R59aOPYzYSfDHonn42-14" value="No" style="text;html=1;strokeColor=none;fillColor=none;align=center;verticalAlign=middle;whiteSpace=wrap;rounded=0;" vertex="1" parent="1">
          <mxGeometry x="430" y="280" width="60" height="30" as="geometry" />
        </mxCell>
        <mxCell id="p1R59aOPYzYSfDHonn42-17" value="?" style="rounded=1;whiteSpace=wrap;html=1;fontSize=29;" vertex="1" parent="1">
          <mxGeometry x="310" y="310" width="120" height="60" as="geometry" />
        </mxCell>
        <mxCell id="p1R59aOPYzYSfDHonn42-20" style="edgeStyle=orthogonalEdgeStyle;rounded=0;orthogonalLoop=1;jettySize=auto;html=1;" edge="1" parent="1">
          <mxGeometry relative="1" as="geometry">
            <mxPoint x="430" y="479.5" as="targetPoint" />
            <mxPoint x="505" y="479.5" as="sourcePoint" />
          </mxGeometry>
        </mxCell>
        <mxCell id="p1R59aOPYzYSfDHonn42-21" value="No" style="text;html=1;strokeColor=none;fillColor=none;align=center;verticalAlign=middle;whiteSpace=wrap;rounded=0;" vertex="1" parent="1">
          <mxGeometry x="430" y="440" width="60" height="30" as="geometry" />
        </mxCell>
        <mxCell id="p1R59aOPYzYSfDHonn42-22" value="-" style="rounded=1;whiteSpace=wrap;html=1;fontSize=29;" vertex="1" parent="1">
          <mxGeometry x="540" y="575" width="120" height="60" as="geometry" />
        </mxCell>
        <mxCell id="p1R59aOPYzYSfDHonn42-23" value="feel == 0?" style="rhombus;whiteSpace=wrap;html=1;fontSize=20;" vertex="1" parent="1">
          <mxGeometry x="240" y="450" width="190" height="60" as="geometry" />
        </mxCell>
        <mxCell id="p1R59aOPYzYSfDHonn42-24" value="Yes" style="text;html=1;strokeColor=none;fillColor=none;align=center;verticalAlign=middle;whiteSpace=wrap;rounded=0;" vertex="1" parent="1">
          <mxGeometry x="260" y="530.01" width="60" height="30" as="geometry" />
        </mxCell>
        <mxCell id="p1R59aOPYzYSfDHonn42-25" style="edgeStyle=orthogonalEdgeStyle;rounded=0;orthogonalLoop=1;jettySize=auto;html=1;entryX=0.5;entryY=0;entryDx=0;entryDy=0;" edge="1" parent="1">
          <mxGeometry relative="1" as="geometry">
            <mxPoint x="334.66" y="510" as="sourcePoint" />
            <mxPoint x="334.66" y="570" as="targetPoint" />
          </mxGeometry>
        </mxCell>
        <mxCell id="p1R59aOPYzYSfDHonn42-26" value="0" style="rounded=1;whiteSpace=wrap;html=1;fontSize=29;" vertex="1" parent="1">
          <mxGeometry x="275" y="575" width="120" height="60" as="geometry" />
        </mxCell>
        <mxCell id="p1R59aOPYzYSfDHonn42-27" value="No" style="text;html=1;strokeColor=none;fillColor=none;align=center;verticalAlign=middle;whiteSpace=wrap;rounded=0;" vertex="1" parent="1">
          <mxGeometry x="165" y="440" width="60" height="30" as="geometry" />
        </mxCell>
        <mxCell id="p1R59aOPYzYSfDHonn42-28" style="edgeStyle=orthogonalEdgeStyle;rounded=0;orthogonalLoop=1;jettySize=auto;html=1;" edge="1" parent="1">
          <mxGeometry relative="1" as="geometry">
            <mxPoint x="165" y="479.5" as="targetPoint" />
            <mxPoint x="240" y="479.5" as="sourcePoint" />
          </mxGeometry>
        </mxCell>
        <mxCell id="p1R59aOPYzYSfDHonn42-29" value="+" style="rounded=1;whiteSpace=wrap;html=1;fontSize=29;" vertex="1" parent="1">
          <mxGeometry x="30" y="460" width="120" height="60" as="geometry" />
        </mxCell>
      </root>
    </mxGraphModel>
  </diagram>
</mxfile>
